<svg xmlns="http://www.w3.org/2000/svg" width="64" height="64" viewBox="0 0 64 64" fill="none">
  <rect width="64" height="64" rx="12" fill="#000000"/>
  <path d="M32 8C18.7452 8 8 18.7452 8 32C8 45.2548 18.7452 56 32 56C45.2548 56 56 45.2548 56 32C56 18.7452 45.2548 8 32 8Z" fill="#13073A"/>
  <path d="M32 12C20.9543 12 12 20.9543 12 32C12 43.0457 20.9543 52 32 52C43.0457 52 52 43.0457 52 32C52 20.9543 43.0457 12 32 12Z" fill="#000000"/>
  <path d="M32 16C23.1634 16 16 23.1634 16 32C16 40.8366 23.1634 48 32 48C40.8366 48 48 40.8366 48 32C48 23.1634 40.8366 16 32 16Z" fill="#13073A"/>
  <path d="M32 20C25.3726 20 20 25.3726 20 32C20 38.6274 25.3726 44 32 44C38.6274 44 44 38.6274 44 32C44 25.3726 38.6274 20 32 20Z" fill="#000000"/>
  <path d="M32 24C27.5817 24 24 27.5817 24 32C24 36.4183 27.5817 40 32 40C36.4183 40 40 36.4183 40 32C40 27.5817 36.4183 24 32 24Z" fill="#13073A"/>
  <path d="M32 28C29.7909 28 28 29.7909 28 32C28 34.2091 29.7909 36 32 36C34.2091 36 36 34.2091 36 32C36 29.7909 34.2091 28 32 28Z" fill="#000000"/>
  <path d="M32 30C30.8954 30 30 30.8954 30 32C30 33.1046 30.8954 34 32 34C33.1046 34 34 33.1046 34 32C34 30.8954 33.1046 30 32 30Z" fill="#B85EFF"/>
  <path d="M45 14L50 19M50 14L45 19" stroke="#FF5EE2" stroke-width="2" stroke-linecap="round"/>
  <path d="M14 45L19 50M19 45L14 50" stroke="#FF5EE2" stroke-width="2" stroke-linecap="round"/>
  <path d="M14 19L19 14M19 19L14 14" stroke="#5E8FFF" stroke-width="2" stroke-linecap="round"/>
  <path d="M45 50L50 45M50 50L45 45" stroke="#5E8FFF" stroke-width="2" stroke-linecap="round"/>
</svg>
